<?xml version="1.0" standalone="no"?>
<!DOCTYPE svg PUBLIC "-//W3C//DTD SVG 20010904//EN"
 "http://www.w3.org/TR/2001/REC-SVG-20010904/DTD/svg10.dtd">
<svg version="1.0" xmlns="http://www.w3.org/2000/svg"
 width="1800.000000pt" height="2800.000000pt" viewBox="800 -500 900.000000 2400.000000"
 preserveAspectRatio="xMidYMid meet">
<g transform="translate(-180,1980) scale(0.16,-0.15)"
fill="#ffffff" stroke="none">
<path d="M9080 16435 c-13 -14 -40 -29 -59 -33 -34 -8 -422 -8 -466 0 l-20 3
3 -75 c2 -41 7 -81 12 -89 l8 -14 14 27 15 28 11 -28 c18 -49 22 -185 25 -839
l2 -630 -22 -48 c-12 -26 -28 -84 -35 -130 l-13 -82 0 -845 0 -845 21 -40 c12
-22 26 -62 32 -90 33 -150 33 -157 -2 -173 l-24 -11 -123 7 c-199 11 -930 -8
-1511 -39 l-218 -12 -15 13 c-22 18 -18 48 10 82 35 42 32 66 -25 183 -28 57
-62 134 -76 172 -14 37 -32 79 -39 93 -28 51 -65 139 -65 153 0 8 -6 20 -13
26 -8 6 -19 30 -26 53 -7 24 -19 50 -27 59 -8 9 -18 34 -21 55 -3 22 -15 49
-26 62 l-21 22 -5 43 -6 42 -22 10 -23 10 0 25 c0 14 -9 39 -20 55 -11 17 -20
38 -20 47 0 9 -11 38 -25 64 -14 26 -25 54 -25 64 0 9 -9 26 -20 38 -11 12
-20 27 -20 34 0 7 -11 32 -25 56 -13 24 -29 61 -35 83 -6 22 -18 43 -26 46
l-14 5 0 38 0 38 -25 30 c-14 17 -25 37 -25 45 0 9 -3 22 -6 31 l-6 16 -18
-10 -19 -10 -6 11 c-4 6 -4 34 0 64 l6 53 -26 6 -27 7 6 33 6 33 -20 26 -20
25 0 34 c0 18 -11 54 -25 80 -14 26 -25 53 -25 61 0 8 -8 25 -18 38 -11 13
-22 38 -26 54 -4 17 -13 37 -20 45 -17 20 -36 77 -36 107 l0 24 -19 -6 -20 -6
6 54 5 53 -16 31 c-9 18 -24 34 -35 38 -22 7 -91 -19 -91 -34 0 -5 -10 -13
-22 -17 -13 -3 -36 -15 -51 -26 -52 -37 -142 -81 -217 -108 -121 -42 -122 -45
-56 -153 24 -40 47 -83 51 -97 4 -14 16 -35 25 -48 22 -28 87 -192 99 -252 5
-25 19 -70 31 -100 12 -30 28 -73 36 -95 8 -22 21 -52 29 -67 8 -14 15 -34 15
-43 0 -9 6 -29 14 -43 8 -15 35 -83 61 -152 26 -69 55 -143 65 -165 10 -22 33
-80 50 -129 18 -48 39 -100 46 -115 8 -14 14 -34 14 -43 0 -10 8 -33 17 -53
l17 -35 23 0 c13 0 23 -4 23 -9 0 -6 12 -16 27 -23 l27 -13 7 -29 c4 -15 14
-36 22 -45 8 -9 20 -34 27 -56 7 -22 19 -49 26 -60 8 -11 14 -27 14 -37 0 -9
20 -56 45 -102 25 -47 45 -96 45 -108 0 -13 9 -36 20 -53 11 -16 20 -36 20
-43 0 -7 9 -32 21 -55 11 -23 29 -69 40 -102 12 -33 27 -73 34 -90 7 -16 30
-70 50 -120 21 -49 57 -136 81 -191 47 -109 52 -132 30 -140 -23 -9 -48 11
-60 47 -6 18 -17 34 -23 37 l-13 4 0 -21 c0 -31 49 -143 69 -158 23 -18 58
-16 69 3 13 23 71 42 192 61 l105 16 540 0 c297 0 722 -2 944 -4 l404 -4 23
-37 c13 -20 40 -49 61 -64 21 -16 62 -50 91 -76 70 -63 67 -62 341 -55 l235 7
14 14 14 14 -11 64 c-14 83 -14 125 1 134 7 4 100 7 207 5 222 -2 487 13 606
35 153 29 302 42 540 49 132 3 306 8 387 10 l147 4 32 -22 c17 -12 38 -35 47
-52 9 -16 29 -51 44 -76 16 -25 28 -51 28 -57 0 -17 -35 -15 -50 3 -17 21 -43
19 -75 -7 l-27 -21 -20 12 -19 12 -52 -17 -52 -17 -297 -1 c-290 -1 -324 -4
-300 -28 l12 -12 112 1 c62 0 244 3 403 7 329 7 295 7 360 -1 28 -3 70 -6 95
-6 l44 -2 9 30 c5 17 18 48 28 71 11 23 19 45 19 49 0 16 82 229 96 249 8 11
14 30 14 41 0 11 9 37 20 58 11 20 20 43 20 50 0 7 13 39 30 72 16 33 30 69
30 80 0 11 7 29 15 39 8 11 15 30 15 42 0 12 7 27 15 34 8 7 15 17 15 22 0 6
18 48 40 95 22 47 40 92 40 100 0 8 15 47 34 86 18 40 55 124 81 187 26 63 60
144 77 180 17 36 34 74 38 85 4 11 28 63 53 115 47 99 137 321 137 338 0 5 7
15 15 22 8 7 15 21 15 32 0 19 32 103 75 193 13 28 33 75 45 105 12 30 40 91
61 135 22 44 39 85 39 90 0 6 10 28 21 50 12 22 37 76 56 119 19 44 41 95 50
113 l15 33 -14 23 c-14 20 -75 86 -185 200 -25 26 -54 47 -64 47 -20 0 -169
58 -184 71 -5 5 -21 9 -35 9 -15 0 -45 13 -66 28 -21 16 -51 36 -65 46 l-27
17 -26 -45 c-24 -42 -66 -143 -108 -265 -10 -30 -24 -62 -32 -70 -7 -9 -17
-27 -21 -41 -7 -27 -25 -66 -118 -270 l-35 -76 -26 -12 c-14 -6 -26 -16 -26
-21 0 -5 -5 -22 -10 -37 l-11 -27 -11 11 c-21 21 -28 13 -28 -37 l0 -50 -27
-3 -28 -3 -5 -58 -5 -57 -10 2 c-5 2 -17 -19 -26 -47 l-16 -50 -16 -3 -16 -3
-7 -37 c-4 -20 -14 -46 -24 -57 -27 -31 -90 -167 -90 -195 0 -14 -9 -38 -20
-55 -11 -16 -20 -37 -20 -45 0 -9 -9 -33 -20 -55 -11 -22 -20 -48 -20 -60 0
-11 -8 -33 -18 -50 -22 -36 -58 -136 -68 -185 -3 -19 -10 -40 -14 -45 -8 -10
-34 -75 -85 -213 -13 -35 -28 -68 -33 -75 -5 -7 -12 -25 -16 -42 -4 -16 -18
-55 -30 -85 -13 -30 -30 -77 -39 -105 l-16 -50 6 -46 5 -45 -15 -16 -15 -15
-473 -2 c-260 -1 -476 -4 -480 -6 -4 -3 -204 -5 -445 -6 l-438 -1 -21 -10
c-11 -6 -32 -25 -47 -42 l-27 -33 5 -20 6 -21 40 0 c23 -1 45 -5 51 -11 l10
-10 -13 -15 -12 -16 6 -16 6 -17 85 7 85 6 33 -13 32 -14 57 5 c31 2 69 2 83
-2 l25 -6 0 -15 0 -15 -27 -1 c-16 -1 -63 -1 -105 1 l-78 2 0 -17 0 -17 43 4
42 5 33 -29 c18 -15 39 -28 46 -28 8 0 19 -7 26 -15 l12 -15 68 6 c69 7 120 0
120 -15 0 -4 -78 -11 -172 -14 -95 -3 -191 -11 -213 -16 l-40 -10 -270 5
c-148 4 -288 8 -310 10 -22 3 -67 6 -100 8 -33 2 -70 4 -83 5 -33 2 -19 18 24
25 l36 7 -6 15 c-3 9 -6 20 -6 26 l0 10 -27 -7 -28 -6 33 30 c38 35 40 54 9
68 l-23 11 -47 -5 -47 -6 0 16 c0 20 31 30 67 20 15 -4 36 -6 46 -4 10 1 24
-3 32 -9 l14 -11 21 40 c11 23 27 41 34 41 17 0 76 78 76 100 0 8 7 26 16 38
l15 22 25 0 24 0 0 14 c0 7 -7 19 -15 26 l-16 13 6 28 6 27 -10 7 c-14 8 -14
101 0 127 l11 20 24 -6 c13 -4 33 -2 43 3 l18 10 12 -25 c6 -14 11 -35 11 -48
0 -41 46 -76 69 -53 l11 11 2 -24 c0 -14 0 -38 -1 -53 l-3 -29 18 -19 c19 -21
54 -25 72 -7 l12 12 -1 211 c-1 266 -14 625 -24 648 -4 9 -15 17 -25 17 l-18
0 -14 38 -13 37 3 700 4 700 9 38 10 37 18 0 19 0 12 33 12 32 4 430 c2 237 6
509 9 605 l5 174 12 31 11 32 -10 29 -10 29 -19 3 -20 3 -24 -26z m3487 -1490
c-10 -42 -43 -124 -78 -197 -12 -24 -11 -58 1 -58 6 0 10 5 10 11 0 6 11 24
25 41 14 16 25 36 25 43 0 8 10 21 22 29 l22 15 0 33 c1 43 17 51 29 15 l9
-28 -16 -18 -15 -17 6 -37 6 -38 -23 -24 -23 -24 6 -38 c4 -21 9 -50 13 -65
l6 -26 -19 -19 c-10 -10 -17 -26 -15 -35 l3 -17 -28 -3 -28 -3 -3 -44 -3 -43
-20 -5 c-23 -6 -24 -19 -3 -68 24 -57 -8 -93 -42 -47 l-13 17 -1 -18 c0 -10 7
-20 15 -23 22 -9 18 -45 -10 -76 -27 -31 -45 -36 -45 -13 0 8 -4 15 -10 15 -5
0 -10 -9 -10 -20 0 -11 4 -20 10 -20 13 0 23 -44 15 -69 -9 -30 -21 -26 -35
12 l-11 32 -15 -19 c-18 -26 -18 -65 1 -72 19 -8 19 -43 1 -70 -8 -11 -16 -31
-18 -44 l-3 -25 -32 -15 -32 -15 -5 -22 c-4 -12 -2 -33 4 -48 5 -14 10 -36 10
-47 l0 -21 -18 16 c-10 10 -27 17 -37 17 l-18 0 7 -41 7 -41 -20 -5 -19 -5 4
-65 c2 -36 6 -68 9 -72 2 -4 -7 -41 -22 -82 l-25 -74 -24 -22 -23 -21 6 -36 6
-35 -32 -49 c-17 -27 -34 -64 -37 -83 -7 -36 -49 -134 -69 -159 -7 -8 -15 -34
-19 -57 -3 -23 -12 -54 -20 -70 -8 -15 -27 -55 -42 -88 -15 -33 -37 -72 -49
-86 l-22 -27 -12 -63 c-7 -35 -19 -71 -26 -79 -7 -8 -20 -37 -30 -65 -10 -27
-23 -54 -29 -60 -6 -5 -19 -41 -29 -80 l-18 -70 -25 -18 -24 -19 0 -21 c0 -31
-11 -43 -42 -51 l-28 -6 0 -46 0 -45 -22 12 c-13 7 -44 33 -70 57 l-48 45 0
25 c0 13 6 36 14 50 15 30 56 134 56 144 0 3 18 44 40 91 22 46 40 89 40 94 0
10 22 63 76 180 13 28 24 55 24 58 0 3 11 30 24 58 14 29 45 102 71 162 25 61
53 121 60 135 8 14 22 41 31 60 8 19 35 77 60 129 24 51 54 116 66 145 12 28
32 67 44 86 12 20 32 61 44 90 12 30 26 62 31 70 24 40 69 133 69 143 0 5 11
34 25 63 14 29 22 59 20 67 -3 7 1 20 10 27 8 7 15 26 15 42 l0 30 -12 -4 c-7
-3 -15 -18 -16 -34 -2 -16 -10 -36 -17 -44 -7 -8 -23 -40 -36 -70 -12 -30 -33
-69 -46 -86 -13 -17 -23 -37 -23 -46 0 -8 -11 -29 -25 -48 -14 -19 -25 -40
-25 -48 l0 -15 -35 6 -35 6 0 -20 c0 -11 -13 -31 -29 -45 -17 -14 -33 -35 -37
-47 -3 -12 -17 -34 -31 -48 l-24 -26 -85 2 -84 2 -23 21 -22 21 -55 3 -55 3
-9 48 -9 47 20 23 c12 12 24 36 28 54 3 18 14 42 24 55 9 13 23 37 30 54 13
33 43 59 100 89 l34 17 39 -13 40 -13 17 11 17 11 29 -13 30 -12 18 9 c23 12
37 2 37 -26 0 -28 19 -86 29 -86 8 0 111 213 111 229 0 5 20 50 45 100 25 50
45 94 45 99 0 5 6 22 14 38 8 16 35 76 61 134 26 58 66 146 90 195 84 176 133
281 154 327 12 26 29 52 39 57 l17 10 13 -17 c7 -9 11 -26 9 -37z m-2867
-2623 l23 -19 -7 -11 c-13 -21 -96 -10 -96 12 0 36 46 46 80 18z"/>
<path d="M12439 14632 c-9 -10 -19 -36 -22 -56 -3 -21 -13 -46 -22 -56 -9 -10
-21 -35 -26 -56 -6 -22 -18 -46 -26 -56 l-14 -16 3 -29 3 -28 23 61 c13 33 32
68 43 77 10 9 19 23 19 31 0 7 11 33 24 57 13 24 27 54 31 67 l6 22 -13 0 c-8
0 -21 -8 -29 -18z"/>
<path d="M12289 14278 c-6 -24 -17 -50 -25 -59 -8 -8 -20 -36 -28 -62 l-14
-47 11 7 c7 3 22 15 35 26 l22 20 0 30 c0 17 7 38 15 47 8 9 18 31 21 48 l7
32 -16 0 -16 0 -12 -42z"/>
<path d="M9180 16348 c0 -7 18 -49 41 -95 l41 -82 2 -44 c2 -24 9 -54 16 -67
l12 -23 5 -336 c3 -185 8 -340 13 -344 4 -5 6 128 5 295 -2 167 1 337 6 378 5
41 12 100 15 130 l6 55 -75 73 c-75 73 -87 81 -87 60z"/>
<path d="M9310 15306 c-12 -33 -13 -136 -1 -136 8 0 23 151 15 159 -2 2 -8 -8
-14 -23z"/>
<path d="M9291 15043 l-12 -42 0 -228 c0 -125 3 -259 5 -296 l5 -68 -20 -17
-19 -16 2 -156 c1 -85 3 -138 5 -117 2 20 9 37 14 37 l10 0 -2 -137 c-2 -155
19 -473 32 -488 l9 -9 1 29 c1 17 4 50 6 75 7 62 10 1012 5 1248 l-5 192 -12
17 -13 17 -11 -41z"/>
<path d="M6182 14438 c-24 -24 -4 -88 29 -88 5 0 9 -14 9 -31 0 -26 33 -109
86 -212 8 -16 14 -40 14 -53 0 -13 14 -48 30 -77 17 -30 30 -65 30 -80 l0 -25
25 -30 25 -30 0 -51 0 -51 12 3 c7 1 19 -11 28 -28 9 -16 23 -42 33 -56 9 -14
28 -58 42 -98 13 -40 33 -87 45 -105 11 -19 20 -41 20 -51 0 -9 9 -28 20 -42
11 -14 20 -35 20 -47 0 -12 14 -41 32 -65 l31 -43 -12 -35 -13 -35 41 -42 41
-41 6 -35 c9 -54 33 -111 60 -143 13 -16 24 -38 24 -49 0 -12 7 -29 15 -38 8
-9 18 -41 22 -70 l8 -55 19 -3 c10 -2 23 1 29 7 l11 11 -20 27 c-12 16 -23 46
-26 68 -5 38 -38 117 -98 235 -15 31 -48 118 -74 194 -25 77 -55 153 -66 171
-11 18 -20 39 -20 48 0 14 -60 152 -101 229 -10 20 -19 46 -19 56 0 11 -8 30
-19 43 -10 13 -21 40 -25 59 -8 37 -52 145 -92 221 -13 26 -24 54 -24 63 0 10
-8 34 -19 54 -18 37 -46 97 -96 207 -15 33 -30 73 -34 90 -7 32 -29 43 -49 23z"/>
<path d="M8976 12685 c8 -19 8 -59 2 -100 l-3 -19 18 -4 17 -3 2 40 c1 23 2
49 2 59 1 9 -5 17 -12 17 -7 0 -17 7 -23 15 l-11 15 8 -20z"/>
<path d="M6585 11879 c10 -13 47 -46 83 -73 l65 -48 41 12 41 12 360 4 c198 3
371 7 384 10 l24 5 -16 16 -16 16 -268 -2 c-311 -3 -372 -3 -471 3 l-73 5 -46
25 c-25 15 -64 29 -86 33 l-40 6 18 -24z"/>
<path d="M9748 11873 l-29 -13 7 -11 7 -12 271 8 c149 4 285 9 301 10 17 1 42
3 58 3 15 1 27 7 27 13 l0 10 -82 0 c-46 1 -184 2 -307 3 l-224 1 -29 -12z"/>
<path d="M7778 11833 c-27 -2 -48 -8 -48 -14 l0 -9 88 -2 c334 -5 602 4 602
23 l0 9 -297 -2 c-164 -1 -319 -3 -345 -5z"/>
<path d="M9041 11399 c-25 -5 -139 -10 -253 -12 l-209 -3 -10 -14 -11 -15 8
-585 c4 -322 8 -607 8 -635 l1 -50 18 -32 c9 -18 17 -40 17 -50 l0 -18 -588 1
-587 0 -42 13 -43 12 0 14 0 14 58 7 c110 13 79 31 -58 33 -120 1 -124 -8 -84
-206 2 -12 12 -29 22 -39 l17 -18 -2 -118 -2 -119 -26 -21 -26 -20 3 -21 c3
-24 58 -65 97 -73 14 -3 42 -14 62 -25 20 -10 43 -19 51 -19 8 0 23 -9 32 -19
10 -11 38 -28 64 -39 l47 -19 630 8 c726 10 1351 24 1745 40 l275 12 110 -12
c61 -6 151 -14 200 -17 l90 -7 14 16 13 16 -7 20 c-8 27 -73 77 -110 85 -16 4
-54 29 -84 55 l-54 49 -1 140 -1 140 18 19 17 20 0 31 c0 46 16 48 65 5 45
-39 53 -61 33 -81 l-11 -11 19 -36 18 -35 -11 -31 -12 -32 9 -18 c14 -26 12
-56 -6 -90 l-15 -31 14 -16 c8 -10 17 -26 18 -36 2 -10 12 -24 21 -30 l18 -11
16 17 16 16 -16 32 -16 32 12 22 12 21 3 110 3 110 11 22 12 22 -15 38 -15 38
-55 30 c-30 17 -72 45 -94 63 -21 17 -46 32 -56 32 l-17 0 -15 -29 -15 -29
-123 -6 c-68 -3 -279 -8 -470 -12 l-346 -6 -21 12 c-12 6 -21 17 -21 26 0 23
-44 34 -133 33 -123 -1 -168 -22 -98 -44 61 -18 29 -39 -76 -49 l-71 -7 -4 18
c-3 10 -2 189 0 398 l4 380 13 98 13 97 31 35 31 36 2 27 c4 62 8 119 11 153
5 73 49 91 74 32 8 -21 24 -49 34 -62 l20 -24 -11 -11 c-15 -15 -12 -56 4 -62
l13 -5 8 -117 c4 -64 8 -188 9 -274 l1 -157 12 -12 c24 -24 28 4 35 274 4 150
12 310 17 357 l8 85 -15 13 c-9 6 -22 12 -30 12 -18 0 -93 46 -141 86 -33 29
-75 55 -83 53 -2 -1 -23 -5 -47 -10z m404 -1539 c4 -6 24 -22 46 -36 48 -30
48 -37 4 -63 -19 -11 -40 -32 -45 -45 l-9 -25 -39 -20 c-22 -11 -62 -23 -90
-27 -130 -17 -14 -32 323 -43 l250 -8 32 -16 c17 -9 59 -19 92 -22 34 -2 71
-10 83 -16 12 -6 44 -13 72 -14 100 -4 155 -23 140 -47 -3 -4 -16 -8 -29 -8
-13 0 -40 -10 -60 -21 l-35 -21 -21 5 c-12 3 -32 1 -44 -5 l-24 -11 -18 8
c-10 4 -56 9 -103 10 -47 1 -111 7 -143 13 l-58 10 -24 26 c-13 14 -32 26 -42
26 -135 4 -276 13 -308 22 -73 18 -177 25 -415 27 -129 1 -241 6 -249 11 l-15
8 34 6 c19 3 69 8 110 11 41 3 90 11 108 17 19 5 59 11 90 13 32 1 65 3 75 4
l18 1 -6 10 c-3 6 -21 10 -38 10 -41 0 -52 8 -61 45 -4 17 -17 38 -29 47 l-22
18 15 10 c17 11 54 13 88 4 l22 -6 0 -23 0 -24 20 -6 c11 -3 24 -3 30 0 l10 6
-10 20 -11 19 11 20 11 20 25 0 25 0 36 35 36 35 68 0 68 0 6 -10z m-1530
-380 l18 -19 -16 -24 -15 -23 -52 -12 c-63 -15 -134 -15 -220 -2 -90 15 -100
19 -100 40 l0 18 33 12 c35 14 150 26 263 28 l71 2 18 -20z"/>
<path d="M10394 9168 l-6 -21 18 -14 c10 -7 35 -18 54 -24 20 -6 51 -23 70
-39 l34 -28 4 -99 c1 -54 4 -142 5 -196 l2 -98 15 -9 c8 -6 22 -9 30 -7 l15 2
1 90 c3 131 13 256 26 291 l11 31 -18 26 c-10 15 -29 30 -44 33 -14 4 -31 11
-37 16 -25 19 -135 68 -153 68 l-20 0 -7 -22z"/>
<path d="M7262 9168 l-12 -12 1 -45 c1 -26 4 -59 8 -76 l6 -30 22 -3 21 -3 7
-92 c11 -166 1 -237 -35 -237 l-18 0 -7 -27 -7 -28 22 -17 c12 -10 32 -18 44
-18 11 -1 39 -9 61 -20 22 -11 46 -19 54 -20 8 0 35 -12 60 -27 l46 -28 750 3
750 3 175 11 c96 6 236 13 310 17 159 7 162 22 4 18 -108 -3 -174 6 -174 23 0
18 59 40 107 40 26 -1 111 3 188 7 l140 8 195 -11 c190 -11 230 -17 230 -35 0
-12 -35 -29 -62 -30 l-23 0 23 -10 c23 -9 138 -23 317 -39 50 -5 110 -12 135
-15 l45 -7 18 14 19 14 -24 49 -23 50 -44 3 -45 3 -27 23 c-14 12 -42 28 -60
35 -72 27 -80 31 -86 47 -3 8 0 25 6 37 l12 23 -9 55 -8 56 6 109 7 108 -9 28
c-12 34 9 31 -226 28 -106 -1 -389 4 -630 11 l-437 12 -583 -11 c-321 -6 -588
-14 -593 -18 l-10 -6 12 -14 c6 -8 21 -14 33 -15 l21 -1 -33 -9 -34 -10 -116
10 c-144 13 -153 15 -226 40 -33 12 -72 21 -88 21 l-29 0 -34 -36 -34 -36 -18
4 -18 3 -3 30 c-6 51 -41 72 -70 43z m1136 -67 l82 -1 0 -10 0 -10 -57 0
c-110 0 -312 13 -308 20 2 3 48 5 102 4 54 -1 135 -2 181 -3z m737 -11 l50 -7
-115 -2 -115 -1 15 10 c18 11 94 12 165 0z m50 -70 l27 -10 -6 -16 c-7 -19 20
-61 45 -69 23 -8 25 -28 3 -46 l-16 -13 5 -32 6 -33 -37 -21 -36 -22 17 -13
c10 -7 55 -18 100 -25 l82 -12 355 -3 c335 -2 390 -6 390 -25 0 -22 -341 -30
-644 -15 l-109 5 -14 11 -13 12 -78 -7 c-113 -9 -1004 -10 -1024 -1 -28 12
-21 23 21 35 21 5 45 17 52 26 l13 16 -15 9 c-8 5 -31 12 -51 15 -43 7 -49 20
-14 33 l23 9 12 44 11 43 56 48 55 47 38 0 c42 0 61 -14 61 -45 l0 -21 31 -23
31 -23 -6 -24 -6 -24 14 -28 14 -28 -9 -16 -9 -16 17 -13 16 -14 106 1 c158 1
203 17 116 43 -25 7 -45 18 -45 25 0 16 56 76 71 76 l12 0 -15 18 c-8 9 -18
22 -22 29 l-7 12 43 28 c24 15 66 35 93 44 l50 18 82 0 c45 1 94 -4 108 -9z"/>
<path d="M10235 8310 c-49 -4 -274 -8 -500 -9 -225 -1 -504 -6 -620 -11 -329
-14 -1322 -32 -1509 -27 l-168 4 -30 -29 c-43 -42 -73 -37 -95 15 -14 31 -21
33 -48 13 l-19 -14 11 -81 11 -82 18 -13 18 -14 4 -72 4 -72 -13 -42 c-7 -22
-21 -53 -31 -67 -31 -46 -28 -91 7 -107 l26 -12 31 16 30 16 35 -7 34 -6 52
15 c73 21 288 34 662 42 303 6 354 6 408 3 12 0 31 1 41 3 l20 3 -3 -594 -3
-593 -10 -62 c-5 -33 -10 -74 -12 -91 -1 -16 -10 -42 -20 -57 l-18 -28 6 -25
c3 -13 16 -30 28 -36 l21 -11 37 11 c21 6 110 13 197 16 88 2 167 7 175 10 9
4 26 1 38 -5 24 -13 226 -50 271 -50 l29 0 10 26 c6 14 8 29 6 32 -2 4 -7 31
-10 61 -3 30 -10 59 -15 65 -5 6 -9 22 -9 36 -1 14 -7 56 -15 95 l-13 70 -14
-103 -13 -102 -32 0 -31 0 -9 -32 c-6 -17 -18 -36 -27 -42 l-17 -11 -12 12
-12 12 -10 562 -11 562 18 13 c10 7 24 10 32 7 19 -7 141 52 177 85 l27 26 0
25 c0 14 -5 43 -11 65 l-11 39 -109 -5 c-118 -5 -126 -8 -134 -53 -2 -17 -7
-43 -10 -60 -3 -16 -11 -56 -17 -87 -6 -32 -16 -63 -23 -68 l-13 -11 -7 11
c-3 6 -11 71 -17 144 l-10 134 14 29 14 28 134 -3 135 -3 85 -20 85 -19 400
-3 400 -4 73 -30 c41 -17 81 -38 90 -47 l17 -17 -15 -9 c-8 -5 -36 -10 -62
-10 -49 0 -70 -13 -40 -25 9 -4 67 -11 127 -16 61 -4 124 -10 140 -14 l30 -7
19 21 18 20 -7 33 c-5 18 -9 145 -10 282 l-1 248 -25 14 c-13 7 -46 21 -74 30
-27 9 -68 27 -90 40 l-40 23 -50 4 c-27 3 -90 1 -140 -3z m223 -83 l14 -28 18
6 18 6 26 -45 27 -46 2 -91 c1 -50 -1 -93 -5 -96 -5 -2 -4 -13 2 -23 l10 -19
-24 -28 -24 -29 14 -19 c32 -44 0 -64 -54 -32 -18 10 -39 17 -46 14 -8 -3 -22
0 -32 7 l-17 13 -8 54 c-4 30 -8 121 -8 203 l-1 149 17 19 17 19 20 -3 21 -3
13 -28z m-1543 -1583 l16 -17 -3 -25 c-2 -14 -11 -30 -21 -36 l-18 -11 -19 23
c-10 12 -23 22 -30 22 -6 0 -9 6 -6 13 3 6 9 20 12 30 l6 17 23 0 c13 0 31 -7
40 -16z"/>
<path d="M6946 5635 l-28 -36 -8 -57 -8 -57 8 -9 c23 -24 50 23 50 88 l0 22
30 22 c34 25 65 28 73 8 3 -8 24 -20 46 -27 23 -7 48 -20 57 -31 l17 -18 26 1
c14 0 34 4 44 7 l17 7 -15 23 -16 22 -25 0 c-13 0 -48 13 -77 29 l-52 29 -56
7 -55 7 -28 -37z"/>
<path d="M10670 5621 c0 -6 5 -11 11 -11 l10 0 -3 -27 -3 -28 -22 -3 -21 -3
-4 23 -3 23 -17 3 c-9 2 -25 -6 -35 -17 -9 -12 -27 -21 -40 -21 -56 0 -89 -34
-58 -60 8 -7 15 -19 15 -26 l0 -14 -31 0 -31 0 6 17 7 16 -13 9 c-21 13 -44 9
-68 -12 l-23 -20 -30 0 -31 0 -20 -19 c-12 -10 -34 -23 -51 -28 l-30 -10 1
-24 c1 -13 18 -62 37 -109 20 -47 54 -143 77 -215 22 -71 54 -164 69 -205 16
-41 44 -122 64 -180 19 -58 54 -157 77 -220 23 -63 48 -141 55 -172 7 -31 20
-76 28 -100 25 -69 50 -179 55 -235 4 -58 8 -62 29 -35 l14 17 -8 -50 c-10
-68 -7 -94 17 -171 11 -36 20 -77 20 -90 0 -33 34 -152 54 -189 9 -16 16 -48
16 -71 0 -22 7 -49 15 -60 34 -45 17 -73 -31 -50 l-29 13 -165 -12 c-91 -7
-166 -14 -167 -14 -16 -8 -33 -38 -33 -57 l0 -24 -27 -7 c-40 -11 -251 -10
-868 5 -297 7 -711 16 -920 21 l-380 9 -55 16 c-30 9 -97 28 -149 41 l-94 25
-254 0 -254 0 -34 14 c-19 8 -60 41 -92 74 -32 33 -95 85 -141 117 -119 82
-134 114 -92 192 21 40 26 78 11 87 l-9 6 -7 -42 c-4 -23 -11 -49 -15 -58 -12
-24 -31 -81 -46 -134 -8 -28 -18 -54 -24 -60 -5 -5 -10 -20 -10 -33 0 -13 -11
-45 -24 -71 -13 -26 -27 -58 -31 -72 -4 -14 -16 -36 -26 -49 l-19 -24 0 -38 0
-39 173 0 c94 -1 231 -5 302 -11 72 -6 177 -12 235 -14 58 -2 143 -7 189 -10
l83 -7 -8 -8 c-5 -5 -74 -11 -154 -15 -80 -3 -160 -8 -177 -11 l-33 -5 0 -14
0 -14 43 -12 c23 -6 68 -15 101 -19 69 -10 74 -14 57 -42 l-13 -21 15 -15 15
-15 17 7 17 6 -5 18 c-2 9 -6 24 -8 32 l-4 14 135 12 135 12 47 -15 47 -15 84
12 84 12 82 -12 82 -12 -6 -19 c-3 -10 0 -27 6 -38 l13 -19 -13 -16 c-8 -9
-19 -16 -26 -16 -7 0 -24 -11 -39 -25 -15 -14 -36 -25 -47 -25 l-20 0 6 10 c3
6 13 10 21 10 8 0 14 5 14 11 l0 11 -72 -7 c-40 -4 -102 -6 -137 -6 -34 0 -70
-3 -78 -7 l-15 -9 17 -17 c21 -21 17 -25 -32 -38 -59 -16 -154 -21 -214 -10
l-54 10 -11 -9 -11 -9 -597 0 -596 1 -6 10 c-10 17 -2 19 162 23 87 2 196 7
242 11 l83 8 -4 11 -4 11 -160 10 -161 11 -39 27 c-44 30 -71 34 -79 12 -4 -8
-16 -15 -28 -15 l-21 1 -17 38 c-10 20 -18 56 -18 79 l0 41 -12 7 -12 8 -4
-12 c-2 -6 -13 -23 -24 -37 l-21 -26 -9 9 -9 9 25 75 c14 41 26 81 26 88 0 25
62 142 79 147 9 2 39 15 66 28 86 40 213 74 249 68 l24 -5 26 40 c23 37 88
219 150 422 14 47 35 103 46 125 11 21 20 47 20 56 0 9 13 50 29 90 15 41 40
112 54 159 14 47 43 130 63 185 20 55 42 122 50 149 8 28 19 55 24 60 l11 11
9 -15 10 -15 10 15 c6 8 8 24 4 35 -3 11 -8 32 -11 46 l-5 26 20 5 19 5 7 46
c4 26 11 49 16 52 6 3 17 32 26 63 9 31 20 62 24 67 4 6 11 28 14 50 11 58 64
188 83 203 18 13 85 15 148 4 l40 -7 3 -17 3 -17 -33 -9 -33 -8 -3 -16 -3 -15
22 -6 22 -6 -7 -28 c-4 -15 -11 -63 -16 -105 -5 -43 -16 -91 -25 -108 -20 -38
-72 -208 -111 -360 -8 -30 -23 -75 -33 -100 -10 -25 -21 -68 -25 -97 -4 -28
-13 -64 -21 -80 -8 -15 -15 -35 -15 -44 0 -15 -42 -142 -60 -184 -5 -11 -14
-39 -20 -63 -6 -24 -20 -58 -31 -75 -10 -18 -19 -39 -19 -47 0 -8 -6 -26 -13
-40 -7 -14 -19 -46 -26 -72 l-14 -48 5 -51 5 -51 13 -8 c24 -15 39 2 56 58 8
32 24 74 35 94 10 20 19 47 19 60 0 13 11 59 25 103 14 44 25 87 25 95 0 8 6
27 14 41 7 14 19 50 26 80 7 30 19 66 26 81 8 15 14 38 14 52 0 14 5 28 10 31
6 3 10 18 10 31 0 14 16 74 35 132 56 167 63 193 70 252 3 30 10 59 14 65 4 5
13 37 20 70 6 33 18 81 26 106 8 26 15 55 15 65 0 11 10 35 21 54 21 34 86
194 96 236 l5 21 -32 26 -32 27 -30 0 c-42 0 -134 28 -148 45 -7 8 -23 15 -35
15 -57 0 -71 -27 -34 -66 l20 -22 -28 -22 -28 -21 -25 6 c-14 4 -40 9 -58 12
l-34 5 -10 24 -11 24 -36 0 -36 0 -12 19 c-6 10 -27 21 -45 25 -18 4 -62 27
-98 51 l-65 45 -17 -21 c-10 -12 -18 -34 -18 -49 0 -15 -7 -44 -15 -63 -8 -20
-15 -56 -15 -79 l0 -43 -21 -45 c-11 -25 -25 -65 -29 -90 -13 -65 -54 -211
-67 -235 -6 -11 -14 -42 -17 -68 -4 -26 -14 -63 -22 -82 -8 -19 -14 -47 -14
-62 0 -16 -11 -48 -24 -73 -13 -25 -26 -67 -30 -94 -3 -27 -10 -54 -15 -60 -5
-6 -17 -40 -26 -76 -9 -35 -22 -76 -29 -90 -7 -14 -16 -46 -19 -71 -4 -26 -15
-62 -26 -80 -10 -19 -24 -50 -30 -70 -7 -20 -21 -45 -31 -54 l-20 -18 0 -53 0
-54 -25 -16 -26 -17 -34 -72 c-18 -40 -36 -90 -40 -111 -3 -22 -12 -57 -20
-79 -7 -22 -28 -87 -45 -145 -34 -110 -123 -390 -160 -500 -11 -36 -33 -109
-48 -163 l-26 -98 10 -17 11 -17 544 -2 c299 -1 618 -4 709 -7 91 -3 464 -8
830 -12 366 -3 811 -9 990 -14 911 -26 1144 -31 1715 -39 l620 -9 27 -10 27
-11 53 19 c83 30 169 67 178 76 l8 9 -11 45 c-7 25 -16 51 -20 58 -12 18 -57
151 -66 197 -15 70 -42 169 -51 190 -19 41 -80 218 -80 232 0 8 -13 47 -29 86
-15 40 -36 104 -45 142 -9 39 -23 93 -31 120 -39 133 -64 224 -70 260 -4 22
-13 47 -20 55 -7 8 -18 40 -24 70 -7 30 -19 65 -27 78 -8 12 -19 41 -24 65
-17 83 -30 127 -49 169 -10 24 -24 66 -30 93 -13 57 -70 215 -82 229 l-8 9 -6
-16 c-4 -8 0 -31 8 -49 8 -18 18 -60 21 -93 4 -33 20 -98 35 -145 16 -47 32
-100 36 -118 l7 -32 19 -11 20 -10 -7 -49 -7 -50 17 -24 c9 -14 16 -41 16 -59
l0 -35 14 -11 c15 -13 24 -64 32 -186 l6 -80 15 -17 16 -17 1 -71 c0 -38 4
-70 9 -70 4 0 16 -9 27 -20 l20 -20 0 -48 c0 -26 9 -73 20 -105 11 -31 20 -66
20 -77 l0 -20 -25 -10 -25 -10 0 -40 0 -40 23 -5 23 -6 0 -74 -1 -75 23 -15
22 -16 0 -43 c0 -24 9 -63 19 -87 11 -24 22 -71 26 -104 4 -33 13 -70 21 -82
18 -28 18 -47 0 -62 l-14 -12 -16 16 c-9 9 -16 27 -16 39 l0 24 -21 13 -20 14
-8 55 c-4 30 -17 73 -29 95 -12 22 -22 51 -22 65 0 15 -11 41 -25 60 l-25 34
0 35 0 36 -25 40 -24 40 -1 33 c0 18 -8 49 -19 70 -10 20 -21 56 -25 80 -3 23
-15 59 -26 80 -11 20 -20 49 -20 65 0 15 -7 38 -15 51 -9 13 -22 53 -29 89 -8
36 -21 76 -30 89 -9 12 -16 39 -16 60 l0 37 -25 47 -25 47 0 34 0 35 -19 25
c-11 13 -23 45 -26 71 -4 26 -13 64 -21 85 -8 20 -14 63 -14 95 l-1 57 -13 17
-13 17 5 80 4 80 -21 34 -21 34 0 37 c0 20 -8 48 -17 63 -9 14 -20 52 -24 84
-4 32 -16 82 -27 111 -33 86 -62 183 -62 209 0 13 -7 37 -15 53 -8 16 -18 47
-21 70 -3 22 -14 70 -24 106 -10 36 -24 88 -30 116 l-11 50 7 42 7 42 -24 0
c-13 0 -41 3 -61 6 l-38 7 0 -12z m231 -2216 l23 -56 20 3 20 3 8 33 9 34 14
-12 c8 -7 15 -23 15 -35 l0 -23 -21 -14 -22 -14 8 -23 7 -22 21 3 22 3 -3 33
-2 33 16 6 16 6 24 -27 c14 -14 31 -26 39 -26 13 0 45 -36 45 -52 0 -5 -7 -8
-16 -8 l-15 0 3 -32 3 -33 16 -3 15 -3 -4 34 -4 34 15 6 c22 8 55 -20 59 -51
l3 -27 35 3 36 2 22 -30 c12 -16 25 -44 29 -62 3 -18 16 -53 28 -78 12 -25 25
-69 29 -98 4 -30 16 -76 26 -103 11 -27 17 -55 14 -63 -3 -8 -1 -17 5 -21 6
-3 11 -11 11 -16 l0 -10 -27 3 -28 3 3 13 c2 14 -23 68 -36 76 -5 3 -22 -8
-37 -24 l-28 -29 27 -12 c44 -20 30 -29 -48 -29 -81 0 -109 14 -47 24 21 3 44
12 50 20 l12 14 -11 7 c-5 3 -15 3 -22 -1 -7 -4 -120 -9 -252 -10 l-241 -2 -3
-17 -4 -16 -31 6 c-56 11 -67 16 -62 26 4 5 26 9 51 9 24 0 44 2 44 4 0 2 3
11 6 20 l6 16 -113 0 -112 0 -17 -15 -17 -15 -44 15 c-62 21 -233 32 -454 29
l-190 -2 -15 13 -15 13 -45 -8 c-25 -5 -73 -9 -107 -10 l-63 0 0 10 0 10 55 0
55 0 0 11 0 11 24 -6 c13 -3 39 -1 57 6 l33 11 4 -11 c5 -15 62 -16 62 -2 0 6
-13 10 -29 10 -16 0 -34 7 -42 16 l-13 16 -50 -5 c-28 -3 -64 -8 -79 -12 l-28
-8 -26 14 -26 14 -14 -22 -15 -22 -28 5 -28 6 -6 -11 c-9 -14 -63 -14 -72 0
l-6 11 -32 -6 -31 -6 -14 31 -14 32 -126 -7 c-69 -4 -164 -7 -210 -7 l-83 -1
-11 11 c-15 15 -37 14 -43 -3 l-5 -14 -51 -7 -51 -7 -20 -18 c-10 -10 -16 -23
-12 -29 l6 -11 -35 0 -35 0 -18 19 c-10 10 -35 24 -57 31 l-38 12 -62 -4 -61
-5 -22 10 c-25 11 -29 22 -12 33 6 3 8 15 6 26 l-5 19 14 6 c8 3 67 2 131 -2
l116 -7 -13 -8 c-16 -10 -4 -30 19 -30 24 0 33 11 20 26 l-10 12 20 7 c26 8
42 -1 34 -20 l-5 -15 16 0 c9 0 16 6 16 14 l0 13 93 7 c50 4 99 7 107 6 8 -1
101 -2 207 -1 l192 1 6 -21 7 -21 46 6 c62 8 72 8 108 0 l32 -6 26 17 25 17
168 0 c152 -1 519 21 529 31 7 6 -178 17 -321 18 -117 1 -285 13 -260 18 6 1
136 3 290 6 154 2 325 8 380 14 56 5 205 11 332 12 127 1 237 5 243 9 l12 8
-7 49 c-7 53 -10 60 -68 147 l-38 57 -6 49 c-11 95 12 102 48 15z m-1758 -556
c38 0 14 -18 -32 -24 l-50 -7 -18 10 -18 11 15 5 c8 2 22 7 30 10 8 3 24 3 35
0 11 -3 28 -6 38 -5z m937 -108 l85 -8 -185 -1 -185 -2 15 10 c17 11 146 11
270 1z m295 -1 l6 -10 -98 1 -98 2 40 6 c22 3 63 7 92 8 l52 3 6 -10z"/>
<path d="M10825 5610 c-9 -15 22 -55 65 -85 22 -15 40 -34 40 -42 0 -8 11 -28
25 -45 14 -16 25 -38 25 -49 0 -26 18 -59 31 -59 l11 0 -5 38 c-2 20 -9 51
-15 67 -6 17 -16 57 -24 90 l-13 60 -50 17 c-59 19 -82 22 -90 8z"/>
<path d="M7282 5523 l3 -18 35 0 35 0 0 15 0 15 -38 3 -39 3 4 -18z"/>
<path d="M11096 5052 c-8 -13 2 -78 16 -105 5 -10 17 -50 27 -89 10 -40 24
-74 31 -76 l13 -5 -6 51 c-3 28 -17 73 -31 101 -14 28 -26 61 -27 73 0 13 -4
32 -8 42 l-8 20 -7 -12z"/>
<path d="M7106 4048 c-9 -34 -7 -98 3 -98 10 0 21 48 21 91 0 34 -15 38 -24 7z"/>
<path d="M11435 3448 c-4 -9 -5 -31 -3 -50 l3 -33 20 0 20 0 3 27 3 27 -20 22
-20 22 -6 -15z"/>
<path d="M8140 3401 l-45 -6 25 -7 c14 -4 45 -8 70 -9 25 0 54 -4 65 -8 l20
-8 -20 -6 c-11 -3 -42 -9 -70 -13 -56 -7 -88 -21 -80 -33 10 -17 220 -21 1182
-23 l982 -3 29 22 30 22 21 -6 21 -5 0 9 c0 26 -514 55 -745 43 -16 -1 -52 3
-80 8 -74 15 -1313 35 -1405 23z"/>
<path d="M7635 2860 c-3 -6 2 -13 12 -17 10 -3 21 -11 25 -17 l6 -11 113 0
112 0 5 13 4 12 -46 0 c-24 0 -47 4 -51 9 -3 5 -19 12 -35 16 l-29 6 -37 -13
-37 -13 -4 13 c-6 14 -29 16 -38 2z"/>
<path d="M7465 2829 c-27 -5 -70 -11 -95 -14 -25 -3 -49 -10 -54 -15 l-10 -10
56 0 56 0 4 11 c2 5 22 13 45 16 l42 5 36 -22 36 -23 42 9 42 9 -38 23 -38 22
-37 -1 c-20 -1 -59 -5 -87 -10z"/>
<path d="M6380 1001 c-89 -10 -225 -45 -260 -69 -43 -29 -72 -42 -90 -42 -10
0 -23 -6 -29 -14 l-12 -14 6 -25 c4 -14 14 -32 24 -41 l16 -15 115 -12 115
-11 195 8 c211 9 359 7 430 -6 l45 -8 15 8 c20 11 206 14 440 7 102 -2 284 -4
405 -3 543 3 755 1 1680 -19 138 -3 291 -10 340 -16 83 -9 257 -15 650 -24 83
-2 193 -6 245 -10 52 -4 133 -9 180 -11 46 -2 100 -9 120 -14 l35 -10 115 10
c63 5 174 14 245 20 72 6 160 14 196 19 l66 9 49 34 49 35 79 6 78 6 26 -10
26 -10 13 17 13 17 -11 14 c-6 7 -22 13 -35 13 -12 0 -25 4 -28 9 -18 29 -286
53 -626 57 -124 1 -304 5 -400 9 -96 3 -246 8 -333 10 -86 2 -161 6 -165 8 -4
3 -248 8 -542 12 -595 7 -1217 22 -1229 29 -4 3 -214 8 -467 12 -252 4 -481 8
-509 9 -191 7 -1214 12 -1275 6z"/>
</g>
</svg>
