<?xml version="1.0" encoding="UTF-8"?>
<svg version="1.1" xmlns="http://www.w3.org/2000/svg" width="1024" height="1024">
<path d="M0 0 C337.92 0 675.84 0 1024 0 C1024 337.92 1024 675.84 1024 1024 C686.08 1024 348.16 1024 0 1024 C0 686.08 0 348.16 0 0 Z " fill="#FDFEFE" transform="translate(0,0)"/>
<path d="M0 0 C5.94 0 11.88 0 18 0 C18 46.86 18 93.72 18 142 C41.76 142 65.52 142 90 142 C90.99 139.03 91.98 136.06 93 133 C94.12616642 130.08869206 95.26963 127.19383643 96.44921875 124.3046875 C96.77923889 123.49010071 97.10925903 122.67551392 97.44927979 121.83624268 C98.52584576 119.18133159 99.60652391 116.52811818 100.6875 113.875 C101.44033331 112.02203268 102.19301668 110.16900444 102.94555664 108.31591797 C105.29202619 102.54189855 107.64534292 96.77068447 110 91 C110.38631592 90.05278076 110.77263184 89.10556152 111.1706543 88.12963867 C113.75527742 81.79298527 116.3448292 75.45836442 118.9375 69.125 C119.28179047 68.28289978 119.62608093 67.44079956 119.98080444 66.57318115 C120.95298296 64.19653714 121.92730059 61.82078246 122.90234375 59.4453125 C123.18805237 58.74617737 123.47376099 58.04704224 123.76812744 57.32672119 C125.07201174 54.1569284 126.40505794 51.03536355 128 48 C134.10737442 49.76463072 140.07433507 51.69557475 146 54 C145.3042285 58.79000551 143.48563413 62.93237355 141.59765625 67.34765625 C141.24821457 68.17597458 140.89877289 69.00429291 140.53874207 69.85771179 C139.78080874 71.65355581 139.02086927 73.44855416 138.25915527 75.24279785 C136.21044978 80.07020254 134.17789483 84.90439881 132.14453125 89.73828125 C131.72247406 90.74083954 131.30041687 91.74339783 130.86557007 92.77633667 C126.25696906 103.73888195 121.74591194 114.74085713 117.25 125.75 C116.69036057 127.11887863 116.69036057 127.11887863 116.11941528 128.51541138 C115.04225652 131.15053473 113.9661465 133.78608301 112.890625 136.421875 C112.58497116 137.17047287 112.27931732 137.91907074 111.96440125 138.69035339 C108.94080087 146.1131169 105.97689672 153.55775819 103 161 C41.29 161 -20.42 161 -84 161 C-87.21192837 153.93375759 -90.3297575 146.90680113 -93.23046875 139.71875 C-94.03342808 137.7417728 -94.83640744 135.76480375 -95.6394043 133.7878418 C-96.0550766 132.76201996 -96.4707489 131.73619812 -96.89901733 130.67929077 C-104.9647905 110.77724717 -113.16230263 90.9348999 -121.52612305 71.15625 C-121.88891357 70.29542313 -122.2517041 69.43459625 -122.62548828 68.54768372 C-123.29884923 66.95001856 -123.97454767 65.35333564 -124.65307617 63.75785828 C-126.01179371 60.53046568 -127.21254236 57.41067313 -128 54 C-125.39985473 52.96772138 -122.79573631 51.94894848 -120.1875 50.9375 C-119.44951172 50.64294922 -118.71152344 50.34839844 -117.95117188 50.04492188 C-112.33984375 47.88671875 -112.33984375 47.88671875 -109 49 C-107.58398438 51.68823242 -107.58398438 51.68823242 -106.09375 55.35546875 C-105.67788383 56.36503883 -105.67788383 56.36503883 -105.25361633 57.39500427 C-104.32541979 59.65509364 -103.41290316 61.92119476 -102.5 64.1875 C-101.84964802 65.77893164 -101.19817519 67.36990565 -100.5456543 68.96044922 C-99.12743022 72.42097459 -97.7150931 75.88382965 -96.30615234 79.34814453 C-93.86831318 85.33379425 -91.39920243 91.30632536 -88.92578125 97.27734375 C-88.28749893 98.81865211 -88.28749893 98.81865211 -87.63632202 100.39109802 C-86.78265432 102.45245033 -85.92894569 104.51378569 -85.07519531 106.57510376 C-83.05372968 111.45772301 -81.03562939 116.34172476 -79.01953125 121.2265625 C-78.4984655 122.48719765 -78.4984655 122.48719765 -77.96687317 123.77330017 C-75.60406117 129.50055762 -73.30128082 135.24679794 -71 141 C-35.855 141.495 -35.855 141.495 0 142 C0 95.14 0 48.28 0 0 Z " fill="#030303" transform="translate(505,239)"/>
<path d="M0 0 C4.71563715 0.564925 8.95460366 1.50104172 13.4375 3.0625 C14.48808594 3.42472656 15.53867187 3.78695312 16.62109375 4.16015625 C17.40613281 4.43730469 18.19117188 4.71445312 19 5 C17.78034586 12.92677775 15.78740469 20.33845483 13.25 27.9375 C12.52595107 30.15319121 11.80331045 32.3693431 11.08203125 34.5859375 C10.72705566 35.67358398 10.37208008 36.76123047 10.00634766 37.88183594 C4.97501011 53.47141457 0.58495823 69.2801432 -4 85 C43.85 85 91.7 85 141 85 C135.99915164 68.33050548 130.98584514 51.67724273 125.86328125 35.046875 C125.55342285 34.04076172 125.24356445 33.03464844 124.92431641 31.99804688 C124.30799234 29.99898201 123.69047866 28.00028352 123.07177734 26.00195312 C122.20912263 23.21125815 121.35365662 20.41845834 120.5 17.625 C120.24452393 16.80435059 119.98904785 15.98370117 119.72583008 15.13818359 C118.64459092 11.57864547 118 8.75215643 118 5 C120.24732102 4.15875684 122.49738785 3.32685168 124.75 2.5 C125.38421875 2.26152344 126.0184375 2.02304687 126.671875 1.77734375 C130.03286607 0.55198242 132.36871587 0 136 0 C139.88314649 11.25895546 143.22468751 22.6610017 146.44140625 34.125 C149.027287 43.32047013 151.7437528 52.427907 154.81787109 61.47241211 C158.55978903 72.5251789 161.67388937 83.76401977 164.8125 95 C165.03172119 95.78439453 165.25094238 96.56878906 165.47680664 97.37695312 C167 102.87740772 167 102.87740772 167 104 C101.99 104 36.98 104 -30 104 C-27.77625571 92.88127854 -27.77625571 92.88127854 -25.75 87.1875 C-23.65936288 81.15874053 -21.8435153 75.08213175 -20.125 68.9375 C-18.02633223 61.44704944 -15.76855931 54.02641516 -13.375 46.625 C-11.05752299 39.44250466 -8.92385766 32.27094245 -7.04296875 24.9609375 C-5.70620141 19.80191491 -4.22016852 14.68475042 -2.75 9.5625 C-2.47921631 8.61882568 -2.20843262 7.67515137 -1.92944336 6.70288086 C-1.28735038 4.46828142 -0.64427221 2.23397193 0 0 Z " fill="#040404" transform="translate(446,637)"/>
<path d="M0 0 C38.94 0 77.88 0 118 0 C118 6.27 118 12.54 118 19 C101.5 19 85 19 68 19 C68 35.5 68 52 68 69 C62.06 69 56.12 69 50 69 C50 52.5 50 36 50 19 C33.5 19 17 19 0 19 C0 12.73 0 6.46 0 0 Z " fill="#040404" transform="translate(455,537)"/>
<path d="M0 0 C6.27 0 12.54 0 19 0 C19 16.5 19 33 19 50 C35.17 50 51.34 50 68 50 C68 55.94 68 61.88 68 68 C29.06 68 -9.88 68 -50 68 C-50 62.06 -50 56.12 -50 50 C-33.5 50 -17 50 0 50 C0 33.5 0 17 0 0 Z " fill="#020202" transform="translate(505,424)"/>
<path d="M0 0 C38.94 0 77.88 0 118 0 C118 5.94 118 11.88 118 18 C79.06 18 40.12 18 0 18 C0 12.06 0 6.12 0 0 Z " fill="#000000" transform="translate(455,506)"/>
</svg>
