<?xml version="1.0" standalone="no"?>
<!DOCTYPE svg PUBLIC "-//W3C//DTD SVG 20010904//EN"
 "http://www.w3.org/TR/2001/REC-SVG-20010904/DTD/svg10.dtd">
<svg version="1.0" xmlns="http://www.w3.org/2000/svg"
 width="1800.000000pt" height="1800.000000pt" viewBox="0 0 1800.000000 1800.000000"
 preserveAspectRatio="xMidYMid meet">
<g transform="translate(0.000000,1800.000000) scale(0.100000,-0.100000)"
fill="#000000" stroke="none">
<path d="M0 9000 l0 -9000 9000 0 9000 0 0 9000 0 9000 -9000 0 -9000 0 0
-9000z m9153 7426 l10 -29 -11 -32 -12 -31 -5 -174 c-3 -96 -7 -368 -9 -605
l-4 -430 -12 -32 -12 -33 -19 0 -18 0 -10 -37 -9 -38 -4 -700 -3 -700 13 -37
14 -38 18 0 c10 0 21 -8 25 -17 10 -23 23 -382 24 -648 l1 -211 -12 -12 c-18
-18 -53 -14 -72 7 l-18 19 3 29 c1 15 1 39 1 53 l-2 24 -11 -11 c-23 -23 -69
12 -69 53 0 13 -5 34 -11 48 l-12 25 -18 -10 c-10 -5 -30 -7 -43 -3 l-24 6
-11 -20 c-14 -26 -14 -119 0 -127 l10 -7 -6 -27 -6 -28 16 -13 c8 -7 15 -19
15 -26 l0 -14 -24 0 -25 0 -15 -22 c-9 -12 -16 -30 -16 -38 0 -22 -59 -100
-76 -100 -7 0 -23 -18 -34 -41 l-21 -40 -14 11 c-8 6 -22 10 -32 9 -10 -2 -31
0 -46 4 -36 10 -67 0 -67 -20 l0 -16 47 6 47 5 23 -11 c31 -14 29 -33 -9 -68
l-33 -30 28 6 27 7 0 -10 c0 -6 3 -17 6 -26 l6 -15 -36 -7 c-43 -7 -57 -23
-24 -25 13 -1 50 -3 83 -5 33 -2 78 -5 100 -8 22 -2 162 -6 310 -10 l270 -5
40 10 c22 5 118 13 213 16 94 3 172 10 172 14 0 15 -51 22 -120 15 l-68 -6
-12 15 c-7 8 -18 15 -26 15 -7 0 -28 13 -46 28 l-33 29 -42 -5 -43 -4 0 17 0
17 78 -2 c42 -2 89 -2 105 -1 l27 1 0 15 0 15 -25 6 c-14 4 -52 4 -83 2 l-57
-5 -32 14 -33 13 -85 -6 -85 -7 -6 17 -6 16 12 16 13 15 -10 10 c-6 6 -28 10
-51 11 l-40 0 -6 21 -5 20 27 33 c15 17 36 36 47 42 l21 10 438 1 c241 1 441
3 445 6 4 2 220 5 480 6 l473 2 15 15 15 16 -5 45 -6 46 16 50 c9 28 26 75 39
105 12 30 26 69 30 85 4 17 11 35 16 42 5 7 20 40 33 75 51 138 77 203 85 213
4 5 11 26 14 45 10 49 46 149 68 185 10 17 18 39 18 50 0 12 9 38 20 60 11 22
20 46 20 55 0 8 9 29 20 45 11 17 20 41 20 55 0 28 63 164 90 195 10 11 20 37
24 57 l7 37 16 3 16 3 16 50 c9 28 21 49 26 47 l10 -2 5 57 5 58 28 3 27 3 0
50 c0 50 7 58 28 37 l11 -11 11 27 c5 15 10 32 10 37 0 5 12 15 26 21 l26 12
35 76 c93 204 111 243 118 270 4 14 14 32 21 41 8 8 22 40 32 70 42 122 84
223 108 265 l26 45 27 -17 c14 -10 44 -30 65 -46 21 -15 51 -28 66 -28 14 0
30 -4 35 -9 15 -13 164 -71 184 -71 10 0 39 -21 64 -47 110 -114 171 -180 185
-200 l14 -23 -15 -33 c-9 -18 -31 -69 -50 -113 -19 -43 -44 -97 -56 -119 -11
-22 -21 -44 -21 -50 0 -5 -17 -46 -39 -90 -21 -44 -49 -105 -61 -135 -12 -30
-32 -77 -45 -105 -43 -90 -75 -174 -75 -193 0 -11 -7 -25 -15 -32 -8 -7 -15
-17 -15 -22 0 -17 -90 -239 -137 -338 -25 -52 -49 -104 -53 -115 -4 -11 -21
-49 -38 -85 -17 -36 -51 -117 -77 -180 -26 -63 -63 -147 -81 -187 -19 -39 -34
-78 -34 -86 0 -8 -18 -53 -40 -100 -22 -47 -40 -89 -40 -95 0 -5 -7 -15 -15
-22 -8 -7 -15 -22 -15 -34 0 -12 -7 -31 -15 -42 -8 -10 -15 -28 -15 -39 0 -11
-14 -47 -30 -80 -17 -33 -30 -65 -30 -72 0 -7 -9 -30 -20 -50 -11 -21 -20 -47
-20 -58 0 -11 -6 -30 -14 -41 -14 -20 -96 -233 -96 -249 0 -4 -8 -26 -19 -49
-10 -23 -23 -54 -28 -71 l-9 -30 -44 2 c-25 0 -67 3 -95 6 -65 8 -31 8 -360 1
-159 -4 -341 -7 -403 -7 l-112 -1 -12 12 c-24 24 10 27 300 28 l297 1 52 17
52 17 19 -12 20 -12 27 21 c32 26 58 28 75 7 15 -18 50 -20 50 -3 0 6 -12 32
-28 57 -15 25 -35 60 -44 76 -9 17 -30 40 -47 52 l-32 22 -147 -4 c-81 -2
-255 -7 -387 -10 -238 -7 -387 -20 -540 -49 -119 -22 -384 -37 -606 -35 -107
2 -200 -1 -207 -5 -15 -9 -15 -51 -1 -134 l11 -64 -14 -14 -14 -14 -235 -7
c-274 -7 -271 -8 -341 55 -29 26 -70 60 -91 76 -21 15 -48 44 -61 64 l-23 37
-404 4 c-222 2 -647 4 -944 4 l-540 0 -105 -16 c-121 -19 -179 -38 -192 -61
-11 -19 -46 -21 -69 -3 -20 15 -69 127 -69 158 l0 21 13 -4 c6 -3 17 -19 23
-37 12 -36 37 -56 60 -47 22 8 17 31 -30 140 -24 55 -60 142 -81 191 -20 50
-43 104 -50 120 -7 17 -22 57 -34 90 -11 33 -29 79 -40 102 -12 23 -21 48 -21
55 0 7 -9 27 -20 43 -11 17 -20 40 -20 53 0 12 -20 61 -45 108 -25 46 -45 93
-45 102 0 10 -6 26 -14 37 -7 11 -19 38 -26 60 -7 22 -19 47 -27 56 -8 9 -18
30 -22 45 l-7 29 -27 13 c-15 7 -27 17 -27 23 0 5 -10 9 -23 9 l-23 0 -17 35
c-9 20 -17 43 -17 53 0 9 -6 29 -14 43 -7 15 -28 67 -46 115 -17 49 -40 107
-50 129 -10 22 -39 96 -65 165 -26 69 -53 137 -61 152 -8 14 -14 34 -14 43 0
9 -7 29 -15 43 -8 15 -21 45 -29 67 -8 22 -24 65 -36 95 -12 30 -26 75 -31
100 -12 60 -77 224 -99 252 -9 13 -21 34 -25 48 -4 14 -27 57 -51 97 -66 108
-65 111 56 153 75 27 165 71 217 108 15 11 38 23 51 26 12 4 22 12 22 17 0 15
69 41 91 34 11 -4 26 -20 35 -38 l16 -31 -5 -53 -6 -54 20 6 19 6 0 -24 c0
-30 19 -87 36 -107 7 -8 16 -28 20 -45 4 -16 15 -41 26 -54 10 -13 18 -30 18
-38 0 -8 11 -35 25 -61 14 -26 25 -62 25 -80 l0 -34 20 -25 20 -26 -6 -33 -6
-33 27 -7 26 -6 -6 -53 c-4 -30 -4 -58 0 -64 l6 -11 19 10 18 10 6 -16 c3 -9
6 -22 6 -31 0 -8 11 -28 25 -45 l25 -30 0 -38 0 -38 14 -5 c8 -3 20 -24 26
-46 6 -22 22 -59 35 -83 14 -24 25 -49 25 -56 0 -7 9 -22 20 -34 11 -12 20
-29 20 -38 0 -10 11 -38 25 -64 14 -26 25 -55 25 -64 0 -9 9 -30 20 -47 11
-16 20 -41 20 -55 l0 -25 23 -10 22 -10 6 -42 5 -43 21 -22 c11 -13 23 -40 26
-62 3 -21 13 -46 21 -55 8 -9 20 -35 27 -59 7 -23 18 -47 26 -53 7 -6 13 -18
13 -26 0 -14 37 -102 65 -153 7 -14 25 -56 39 -93 14 -38 48 -115 76 -172 57
-117 60 -141 25 -183 -28 -34 -32 -64 -10 -82 l15 -13 218 12 c581 31 1312 50
1511 39 l123 -7 24 11 c35 16 35 23 2 173 -6 28 -20 68 -32 90 l-21 40 0 845
0 845 13 82 c7 46 23 104 35 130 l22 48 -2 630 c-3 654 -7 790 -25 839 l-11
28 -15 -28 -14 -27 -8 14 c-5 8 -10 48 -12 89 l-3 75 20 -3 c44 -8 432 -8 466
0 19 4 46 19 59 33 l24 26 20 -3 19 -3 10 -29z m114 -138 l75 -73 -6 -55 c-3
-30 -10 -89 -15 -130 -5 -41 -8 -211 -6 -378 1 -167 -1 -300 -5 -295 -5 4 -10
159 -13 344 l-5 336 -12 23 c-7 13 -14 43 -16 67 l-2 44 -41 82 c-65 131 -58
136 46 35z m56 -1040 c-6 -89 -23 -106 -23 -24 0 49 15 115 24 105 2 -2 1 -39
-1 -81z m9 -390 c5 -236 2 -1186 -5 -1248 -2 -25 -5 -58 -6 -75 l-1 -29 -9 9
c-13 15 -34 333 -32 488 l2 137 -10 0 c-5 0 -12 -17 -14 -37 -2 -21 -4 32 -5
117 l-2 156 19 16 20 17 -5 68 c-2 37 -5 171 -5 296 l0 228 12 42 11 41 13
-17 12 -17 5 -192z m-3101 -443 c4 -17 19 -57 34 -90 50 -110 78 -170 96 -207
11 -20 19 -44 19 -54 0 -9 11 -37 24 -63 40 -76 84 -184 92 -221 4 -19 15 -46
25 -59 11 -13 19 -32 19 -43 0 -10 9 -36 19 -56 41 -77 101 -215 101 -229 0
-9 9 -30 20 -48 11 -18 41 -94 66 -171 26 -76 59 -163 74 -194 60 -118 93
-197 98 -235 3 -22 14 -52 26 -68 l20 -27 -11 -11 c-6 -6 -19 -9 -29 -7 l-19
3 -8 55 c-4 29 -14 61 -22 70 -8 9 -15 26 -15 38 0 11 -11 33 -24 49 -27 32
-51 89 -60 143 l-6 35 -41 41 -41 42 13 35 12 35 -31 43 c-18 24 -32 53 -32
65 0 12 -9 33 -20 47 -11 14 -20 33 -20 42 0 10 -9 32 -20 51 -12 18 -32 65
-45 105 -14 40 -33 84 -42 98 -10 14 -24 40 -33 56 -9 17 -21 29 -28 28 l-12
-3 0 51 0 51 -25 30 -25 30 0 25 c0 15 -13 50 -30 80 -16 29 -30 64 -30 77 0
13 -6 37 -14 53 -53 103 -86 186 -86 212 0 17 -4 31 -9 31 -17 0 -41 31 -41
54 0 51 50 60 61 11z m2771 -1740 c7 0 13 -8 12 -17 0 -10 -1 -36 -2 -59 l-2
-40 -17 3 -18 4 3 19 c6 41 6 81 -2 100 l-8 20 11 -15 c6 -8 16 -15 23 -15z
m-2309 -811 l46 -25 73 -5 c99 -6 160 -6 471 -3 l268 2 16 -16 16 -16 -24 -5
c-13 -3 -186 -7 -384 -10 l-360 -4 -41 -12 -41 -12 -65 48 c-36 27 -73 60 -83
73 l-18 24 40 -6 c22 -4 61 -18 86 -33z m3615 17 l82 0 0 -10 c0 -6 -12 -12
-27 -13 -16 0 -41 -2 -58 -3 -16 -1 -152 -6 -301 -10 l-271 -8 -7 12 -7 11 29
13 29 12 224 -1 c123 -1 261 -2 307 -3z m-1888 -50 c0 -19 -268 -28 -602 -23
l-88 2 0 9 c0 14 61 17 393 19 l297 2 0 -9z m693 -432 c12 -7 38 -26 58 -43
48 -40 123 -86 141 -86 8 0 21 -6 30 -12 l15 -13 -8 -85 c-5 -47 -13 -207 -17
-357 -7 -270 -11 -298 -35 -274 l-12 12 -1 157 c-1 86 -5 210 -9 274 l-8 117
-13 5 c-16 6 -19 47 -4 62 l11 11 -20 24 c-10 13 -26 41 -34 62 -25 59 -69 41
-74 -32 -3 -34 -7 -91 -11 -153 l-2 -27 -31 -36 -31 -35 -13 -97 -13 -98 -4
-380 c-2 -209 -3 -388 0 -398 l4 -18 71 7 c105 10 137 31 76 49 -70 22 -25 43
98 44 89 1 133 -10 133 -33 0 -9 9 -20 21 -26 l21 -12 346 6 c191 4 402 9 470
12 l123 6 15 29 15 29 17 0 c10 0 35 -15 56 -32 22 -18 64 -46 94 -63 l55 -30
15 -38 15 -38 -12 -22 -11 -22 -3 -110 -3 -110 -12 -21 -12 -22 16 -32 16 -32
-16 -16 -16 -17 -18 11 c-9 6 -19 20 -21 30 -1 10 -10 26 -18 36 l-14 16 15
31 c18 34 20 64 6 90 l-9 18 12 32 11 31 -18 35 -19 36 11 11 c20 20 12 42
-33 81 -49 43 -65 41 -65 -5 l0 -31 -17 -20 -18 -19 1 -140 1 -140 54 -49 c30
-26 68 -51 84 -55 37 -8 102 -58 110 -85 l7 -20 -13 -16 -14 -16 -90 7 c-49 3
-139 11 -200 17 l-110 12 -275 -12 c-394 -16 -1019 -30 -1745 -40 l-630 -8
-47 19 c-26 11 -54 28 -64 39 -9 10 -24 19 -32 19 -8 0 -31 9 -51 19 -20 11
-48 22 -62 25 -39 8 -94 49 -97 73 l-3 21 26 20 26 21 2 119 2 118 -17 18
c-10 10 -20 27 -22 39 -40 198 -36 207 84 206 137 -2 168 -20 58 -33 l-58 -7
0 -14 0 -14 43 -12 42 -13 587 0 588 -1 0 18 c0 10 -8 32 -17 50 l-18 32 -1
50 c0 28 -4 313 -8 635 l-8 585 11 15 10 14 209 3 c169 3 265 10 300 22 2 1
13 -4 25 -10z m1388 -2239 c34 -16 66 -33 73 -38 6 -5 23 -12 37 -16 15 -3 34
-18 44 -33 l18 -26 -11 -31 c-13 -35 -23 -160 -26 -291 l-1 -90 -15 -2 c-8 -2
-22 1 -30 7 l-15 9 -2 98 c-1 54 -4 142 -5 196 l-4 99 -34 28 c-19 16 -50 33
-70 39 -19 6 -44 17 -54 24 l-18 14 6 21 7 22 20 0 c10 0 46 -13 80 -30z
m-3183 8 c6 -7 12 -26 14 -43 l3 -30 18 -3 18 -4 34 36 34 36 29 0 c16 0 55
-9 88 -21 73 -25 82 -27 226 -40 l116 -10 34 10 33 9 -21 1 c-12 1 -27 7 -33
15 l-12 14 10 6 c5 4 272 12 593 18 l583 11 437 -12 c241 -7 524 -12 630 -11
235 3 214 6 226 -28 l9 -28 -7 -108 -6 -109 8 -56 9 -55 -12 -23 c-6 -12 -9
-29 -6 -37 6 -16 14 -20 86 -47 18 -7 46 -23 60 -35 l27 -23 45 -3 44 -3 23
-50 24 -49 -19 -14 -18 -14 -45 7 c-25 3 -85 10 -135 15 -179 16 -294 30 -317
39 l-23 10 23 0 c27 1 62 18 62 30 0 18 -40 24 -230 35 l-195 11 -140 -8 c-77
-4 -162 -8 -188 -7 -48 0 -107 -22 -107 -40 0 -17 66 -26 174 -23 158 4 155
-11 -4 -18 -74 -4 -214 -11 -310 -17 l-175 -11 -750 -3 -750 -3 -46 28 c-25
15 -52 27 -60 27 -8 1 -32 9 -54 20 -22 11 -50 19 -61 20 -12 0 -32 8 -44 18
l-22 17 7 28 7 27 18 0 c36 0 46 71 35 237 l-7 92 -21 3 -22 3 -6 30 c-4 17
-7 50 -8 76 l-1 45 12 12 c16 16 43 15 56 0z m3147 -882 c22 -13 63 -31 90
-40 28 -9 61 -23 74 -30 l25 -14 1 -248 c1 -137 5 -264 10 -282 l7 -33 -18
-20 -19 -21 -30 7 c-16 4 -79 10 -140 14 -60 5 -118 12 -127 16 -30 12 -9 25
40 25 26 0 54 5 62 10 l15 9 -17 17 c-9 9 -49 30 -90 47 l-73 30 -400 4 -400
3 -85 19 -85 20 -135 3 -134 3 -14 -28 -14 -29 10 -134 c6 -73 14 -138 17
-144 l7 -11 13 11 c7 5 17 36 23 68 6 31 14 71 17 87 3 17 8 43 10 60 8 45 16
48 134 53 l109 5 11 -39 c6 -22 11 -51 11 -65 l0 -25 -27 -26 c-36 -33 -158
-92 -177 -85 -8 3 -22 0 -32 -7 l-18 -13 11 -562 10 -562 12 -12 12 -12 17 11
c9 6 21 25 27 42 l9 32 31 0 32 0 13 102 14 103 13 -70 c8 -39 14 -81 15 -95
0 -14 4 -30 9 -36 5 -6 12 -35 15 -65 3 -30 8 -57 10 -61 2 -3 0 -18 -6 -32
l-10 -26 -29 0 c-45 0 -247 37 -271 50 -12 6 -29 9 -38 5 -8 -3 -87 -8 -175
-10 -87 -3 -176 -10 -197 -16 l-37 -11 -21 11 c-12 6 -25 23 -28 36 l-6 25 18
28 c10 15 19 41 20 57 2 17 7 58 12 91 l10 62 3 593 3 594 -20 -3 c-10 -2 -29
-3 -41 -3 -239 13 -978 -19 -1070 -45 l-52 -15 -34 6 -35 7 -30 -16 -31 -16
-26 12 c-35 16 -38 61 -7 107 10 14 24 45 31 67 l13 42 -4 72 -4 72 -18 14
-18 13 -11 82 -11 81 19 14 c27 20 34 18 48 -13 22 -52 52 -57 95 -15 l30 29
168 -4 c187 -5 1180 13 1509 27 116 5 395 10 620 11 226 1 451 5 500 9 50 4
113 6 140 3 l50 -4 40 -23z m-3328 -2657 c29 -16 64 -29 77 -29 l25 0 16 -22
15 -23 -17 -7 c-10 -3 -30 -7 -44 -7 l-26 -1 -17 18 c-9 11 -34 24 -57 31 -22
7 -43 19 -46 27 -8 20 -39 17 -73 -8 l-30 -22 0 -22 c0 -65 -27 -112 -50 -88
l-8 9 8 57 8 57 28 36 28 37 55 -7 56 -7 52 -29z m3632 -9 l24 0 -7 -42 -7
-42 11 -50 c6 -28 20 -80 30 -116 10 -36 21 -84 24 -106 3 -23 13 -54 21 -70
8 -16 15 -40 15 -53 0 -26 29 -123 62 -209 11 -29 23 -79 27 -111 4 -32 15
-70 24 -84 9 -15 17 -43 17 -63 l0 -37 21 -34 21 -34 -4 -80 -5 -80 13 -17 13
-17 1 -57 c0 -32 6 -75 14 -95 8 -21 17 -59 21 -85 3 -26 15 -58 26 -71 l19
-25 0 -35 0 -34 25 -47 25 -47 0 -37 c0 -21 7 -48 16 -60 9 -13 22 -53 30 -89
7 -36 20 -76 29 -89 8 -13 15 -36 15 -51 0 -16 9 -45 20 -65 11 -21 23 -57 26
-80 4 -24 15 -60 25 -80 11 -21 19 -52 19 -70 l1 -33 24 -40 25 -40 0 -36 0
-35 25 -34 c14 -19 25 -45 25 -60 0 -14 10 -43 22 -65 12 -22 25 -65 29 -95
l8 -55 20 -14 21 -13 0 -24 c0 -12 7 -30 16 -39 l16 -16 14 12 c18 15 18 34 0
62 -8 12 -17 49 -21 82 -4 33 -15 80 -26 104 -10 24 -19 63 -19 87 l0 43 -22
16 -23 15 1 75 0 74 -23 6 -23 5 0 40 0 40 25 10 25 10 0 20 c0 11 -9 46 -20
77 -11 32 -20 79 -20 105 l0 48 -20 20 c-11 11 -23 20 -27 20 -5 0 -9 32 -9
70 l-1 71 -16 17 -15 17 -6 80 c-8 122 -17 173 -32 186 l-14 11 0 35 c0 18 -7
45 -16 59 l-17 24 7 50 7 49 -20 10 -19 11 -7 32 c-4 18 -20 71 -36 118 -15
47 -31 112 -35 145 -3 33 -13 75 -21 93 -8 18 -12 41 -8 49 l6 16 8 -9 c12
-14 69 -172 82 -229 6 -27 20 -69 30 -93 19 -42 32 -86 49 -169 5 -24 16 -53
24 -65 8 -13 20 -48 27 -78 6 -30 17 -62 24 -70 7 -8 16 -33 20 -55 6 -36 31
-127 70 -260 8 -27 22 -81 31 -120 9 -38 30 -102 45 -142 16 -39 29 -78 29
-86 0 -14 61 -191 80 -232 9 -21 36 -120 51 -190 9 -46 54 -179 66 -197 4 -7
13 -33 20 -58 l11 -45 -8 -9 c-9 -9 -95 -46 -178 -76 l-53 -19 -27 11 -27 10
-620 9 c-571 8 -804 13 -1715 39 -179 5 -624 11 -990 14 -366 4 -739 9 -830
12 -91 3 -410 6 -709 7 l-544 2 -11 17 -10 17 26 98 c15 54 37 127 48 163 37
110 126 390 160 500 17 58 38 123 45 145 8 22 17 57 20 79 4 21 22 71 40 111
l34 72 26 17 25 16 0 54 0 53 20 18 c10 9 24 34 31 54 6 20 20 51 30 70 11 18
22 54 26 80 3 25 12 57 19 71 7 14 20 55 29 90 9 36 21 70 26 76 5 6 12 33 15
60 4 27 17 69 30 94 13 25 24 57 24 73 0 15 6 43 14 62 8 19 18 56 22 82 3 26
11 57 17 68 13 24 54 170 67 235 4 25 18 65 29 90 l21 45 0 43 c0 23 7 59 15
79 8 19 15 48 15 63 0 15 8 37 18 49 l17 21 65 -45 c36 -24 80 -47 98 -51 18
-4 39 -15 45 -25 l12 -19 36 0 36 0 11 -24 10 -24 34 -5 c18 -3 44 -8 58 -12
l25 -6 28 21 28 22 -20 22 c-37 39 -23 66 34 66 12 0 28 -7 35 -15 14 -17 106
-45 148 -45 l30 0 32 -27 32 -26 -5 -21 c-10 -42 -75 -202 -96 -236 -11 -19
-21 -43 -21 -54 0 -10 -7 -39 -15 -65 -8 -25 -20 -73 -26 -106 -7 -33 -16 -65
-20 -70 -4 -6 -11 -35 -14 -65 -7 -59 -14 -85 -70 -252 -19 -58 -35 -118 -35
-132 0 -13 -4 -28 -10 -31 -5 -3 -10 -17 -10 -31 0 -14 -6 -37 -14 -52 -7 -15
-19 -51 -26 -81 -7 -30 -19 -66 -26 -80 -8 -14 -14 -33 -14 -41 0 -8 -11 -51
-25 -95 -14 -44 -25 -90 -25 -103 0 -13 -9 -40 -19 -60 -11 -20 -27 -62 -35
-94 -17 -56 -32 -73 -56 -58 l-13 8 -5 51 -5 51 14 48 c7 26 19 58 26 72 7 14
13 32 13 40 0 8 9 29 19 47 11 17 25 51 31 75 6 24 15 52 20 63 18 42 60 169
60 184 0 9 7 29 15 44 8 16 17 52 21 80 4 29 15 72 25 97 10 25 25 70 33 100
39 152 91 322 111 360 9 17 20 65 25 108 5 42 12 90 16 105 l7 28 -22 6 -22 6
3 15 3 16 33 8 33 9 -3 17 -3 17 -40 7 c-63 11 -130 9 -148 -4 -19 -15 -72
-145 -83 -203 -3 -22 -10 -44 -14 -50 -4 -5 -15 -36 -24 -67 -9 -31 -20 -60
-26 -63 -5 -3 -12 -26 -16 -52 l-7 -46 -19 -5 -20 -5 5 -26 c3 -14 8 -35 11
-46 4 -11 2 -27 -4 -35 l-10 -15 -10 15 -9 15 -11 -11 c-5 -5 -16 -32 -24 -60
-8 -27 -30 -94 -50 -149 -20 -55 -49 -138 -63 -185 -14 -47 -39 -118 -54 -159
-16 -40 -29 -81 -29 -90 0 -9 -9 -35 -20 -56 -11 -22 -32 -78 -46 -125 -62
-203 -127 -385 -150 -422 l-26 -40 -24 5 c-36 6 -163 -28 -249 -68 -27 -13
-57 -26 -66 -28 -17 -5 -79 -122 -79 -147 0 -7 -12 -47 -26 -88 l-25 -75 9 -9
9 -9 21 26 c11 14 22 31 24 37 l4 12 12 -8 12 -7 0 -41 c0 -23 8 -59 18 -79
l17 -38 21 -1 c12 0 24 7 28 15 8 22 35 18 79 -12 l39 -27 161 -11 160 -10 4
-11 4 -11 -83 -8 c-46 -4 -155 -9 -242 -11 -164 -4 -172 -6 -162 -23 l6 -10
596 -1 597 0 11 9 11 9 54 -10 c60 -11 155 -6 214 10 49 13 53 17 32 38 l-17
17 15 9 c8 4 44 7 78 7 35 0 97 2 137 6 l72 7 0 -11 c0 -6 -6 -11 -14 -11 -8
0 -18 -4 -21 -10 l-6 -10 20 0 c11 0 32 11 47 25 15 14 32 25 39 25 7 0 18 7
26 16 l13 16 -13 19 c-6 11 -9 28 -6 38 l6 19 -82 12 -82 12 -84 -12 -84 -12
-47 15 -47 15 -135 -12 -135 -12 4 -14 c2 -8 6 -23 8 -32 l5 -18 -17 -6 -17
-7 -15 15 -15 15 13 21 c17 28 12 32 -57 42 -33 4 -78 13 -101 19 l-43 12 0
14 0 14 33 5 c17 3 97 8 177 11 80 4 149 10 154 15 l8 8 -83 7 c-46 3 -131 8
-189 10 -58 2 -163 8 -235 14 -71 6 -208 10 -302 11 l-173 0 0 39 0 38 19 24
c10 13 22 35 26 49 4 14 18 46 31 72 13 26 24 58 24 71 0 13 5 28 10 33 6 6
16 32 24 60 15 53 34 110 46 134 4 9 11 35 15 58 l7 42 9 -6 c15 -9 10 -47
-11 -87 -42 -78 -27 -110 92 -192 46 -32 109 -84 141 -117 32 -33 73 -66 92
-74 l34 -14 254 0 254 0 94 -25 c52 -13 119 -32 149 -41 l55 -16 380 -9 c209
-5 623 -14 920 -21 617 -15 828 -16 868 -5 l27 7 0 24 c0 19 17 49 33 57 1 0
76 7 167 14 l165 12 29 -13 c48 -23 65 5 31 50 -8 11 -15 38 -15 60 0 23 -7
55 -16 71 -20 37 -54 156 -54 189 0 13 -9 54 -20 90 -24 77 -27 103 -17 171
l8 50 -14 -17 c-21 -27 -25 -23 -29 35 -5 56 -30 166 -55 235 -8 24 -21 69
-28 100 -7 31 -32 109 -55 172 -23 63 -58 162 -77 220 -20 58 -48 139 -64 180
-15 41 -47 134 -69 205 -23 72 -57 168 -77 215 -19 47 -36 96 -37 109 l-1 24
30 10 c17 5 39 18 51 28 l20 19 31 0 30 0 23 20 c24 21 47 25 68 12 l13 -9 -7
-16 -6 -17 31 0 31 0 0 14 c0 7 -7 19 -15 26 -31 26 2 60 58 60 13 0 31 9 40
21 10 11 26 19 35 17 l17 -3 3 -23 4 -23 21 3 22 3 3 28 3 27 -10 0 c-6 0 -11
5 -11 11 l0 12 38 -7 c20 -3 48 -6 61 -6z m146 -18 l50 -17 13 -60 c8 -33 18
-73 24 -90 6 -16 13 -47 15 -67 l5 -38 -11 0 c-13 0 -31 33 -31 59 0 11 -11
33 -25 49 -14 17 -25 37 -25 45 0 8 -18 27 -40 42 -101 70 -87 114 25 77z
m-3560 -82 l0 -15 -35 0 -35 0 -3 18 -4 18 39 -3 38 -3 0 -15z m3764 -518 c1
-12 13 -45 27 -73 14 -28 28 -73 31 -101 l6 -51 -13 5 c-7 2 -21 36 -31 76
-10 39 -22 79 -27 89 -14 27 -24 92 -16 105 l7 12 8 -20 c4 -10 8 -29 8 -42z
m-3989 -961 c0 -43 -11 -91 -21 -91 -10 0 -12 64 -3 98 9 31 24 27 24 -7z
m4348 -649 l-3 -27 -20 0 -20 0 -3 33 c-2 19 -1 41 3 50 l6 15 20 -22 20 -22
-3 -27z m-2358 2 c206 -3 398 -11 425 -16 28 -5 64 -9 80 -8 231 12 745 -17
745 -43 l0 -9 -21 5 -21 6 -30 -22 -29 -22 -982 3 c-962 2 -1172 6 -1182 23
-8 12 24 26 80 33 28 4 59 10 70 13 l20 6 -20 8 c-11 4 -40 8 -65 8 -25 1 -56
5 -70 9 l-25 7 45 6 c49 6 389 4 980 -7z m-1447 -536 l4 -13 37 13 37 13 29
-6 c16 -4 32 -11 35 -16 4 -5 27 -9 51 -9 l46 0 -4 -12 -5 -13 -112 0 -113 0
-6 11 c-4 6 -15 14 -25 17 -10 4 -15 11 -12 17 9 14 32 12 38 -2z m-46 -40
l38 -23 -42 -9 -42 -9 -36 23 -36 22 -42 -5 c-23 -3 -43 -11 -45 -16 l-4 -11
-56 0 -56 0 10 10 c5 5 29 12 54 15 25 3 68 9 95 14 28 5 67 9 87 10 l37 1 38
-22z m28 -1823 c28 -1 257 -5 509 -9 253 -4 463 -9 467 -12 12 -7 634 -22
1229 -29 294 -4 538 -9 542 -12 4 -2 79 -6 165 -8 87 -2 237 -7 333 -10 96 -4
276 -8 400 -9 340 -4 608 -28 626 -57 3 -5 16 -9 28 -9 13 0 29 -6 35 -13 l11
-14 -13 -17 -13 -17 -26 10 -26 10 -78 -6 -79 -6 -49 -35 -49 -34 -66 -9 c-36
-5 -124 -13 -196 -19 -71 -6 -182 -15 -245 -20 l-115 -10 -35 10 c-20 5 -74
12 -120 14 -47 2 -128 7 -180 11 -52 4 -162 8 -245 10 -393 9 -567 15 -650 24
-49 6 -202 13 -340 16 -925 20 -1137 22 -1680 19 -121 -1 -303 1 -405 3 -234
7 -420 4 -440 -7 l-15 -8 -45 8 c-71 13 -219 15 -430 6 l-195 -8 -115 11 -115
12 -16 15 c-10 9 -20 27 -24 41 l-6 25 12 14 c6 8 19 14 29 14 18 0 47 13 90
42 35 24 171 59 260 69 61 6 1084 1 1275 -6z"/>
<path d="M12528 14989 c-10 -5 -27 -31 -39 -57 -21 -46 -70 -151 -154 -327
-24 -49 -64 -137 -90 -195 -26 -58 -53 -118 -61 -134 -8 -16 -14 -33 -14 -38
0 -5 -20 -49 -45 -99 -25 -50 -45 -95 -45 -100 0 -16 -103 -229 -111 -229 -10
0 -29 58 -29 86 0 28 -14 38 -37 26 l-18 -9 -30 12 -29 13 -17 -11 -17 -11
-40 13 -39 13 -34 -17 c-57 -30 -87 -56 -100 -89 -7 -17 -21 -41 -30 -54 -10
-13 -21 -37 -24 -55 -4 -18 -16 -42 -28 -54 l-20 -23 9 -47 9 -48 55 -3 55 -3
22 -21 23 -21 84 -2 85 -2 24 26 c14 14 28 36 31 48 4 12 20 33 37 47 16 14
29 34 29 45 l0 20 35 -6 35 -6 0 15 c0 8 11 29 25 48 14 19 25 40 25 48 0 9
10 29 23 46 13 17 34 56 46 86 13 30 29 62 36 70 7 8 15 28 17 44 1 16 9 31
16 34 l12 4 0 -30 c0 -16 -7 -35 -15 -42 -9 -7 -13 -20 -10 -27 2 -8 -6 -38
-20 -67 -14 -29 -25 -58 -25 -63 0 -10 -45 -103 -69 -143 -5 -8 -19 -40 -31
-70 -12 -29 -32 -70 -44 -90 -12 -19 -32 -58 -44 -86 -12 -29 -42 -94 -66
-145 -25 -52 -52 -110 -60 -129 -9 -19 -23 -46 -31 -60 -7 -14 -35 -74 -60
-135 -26 -60 -57 -133 -71 -162 -13 -28 -24 -55 -24 -58 0 -3 -11 -30 -24 -58
-54 -117 -76 -170 -76 -180 0 -5 -18 -48 -40 -94 -22 -47 -40 -88 -40 -91 0
-10 -41 -114 -56 -144 -8 -14 -14 -37 -14 -50 l0 -25 48 -45 c26 -24 57 -50
70 -57 l22 -12 0 45 0 46 28 6 c31 8 42 20 42 51 l0 21 24 19 25 18 18 70 c10
39 23 75 29 80 6 6 19 33 29 60 10 28 23 57 30 65 7 8 19 44 26 79 l12 63 22
27 c12 14 34 53 49 86 15 33 34 73 42 88 8 16 17 47 20 70 4 23 12 49 19 57
20 25 62 123 69 159 3 19 20 56 37 83 l32 49 -6 35 -6 36 23 21 24 22 25 74
c15 41 24 78 22 82 -3 4 -7 36 -9 72 l-4 65 19 5 20 5 -7 41 -7 41 18 0 c10 0
27 -7 37 -17 l18 -16 0 21 c0 11 -5 33 -10 47 -6 15 -8 36 -4 48 l5 22 32 15
32 15 3 25 c2 13 10 33 18 44 18 27 18 62 -1 70 -19 7 -19 46 -1 72 l15 19 11
-32 c14 -38 26 -42 35 -12 8 25 -2 69 -15 69 -6 0 -10 9 -10 20 0 11 5 20 10
20 6 0 10 -7 10 -15 0 -23 18 -18 45 13 28 31 32 67 10 76 -8 3 -15 13 -15 23
l1 18 13 -17 c34 -46 66 -10 42 47 -21 49 -20 62 3 68 l20 5 3 43 3 44 28 3
28 3 -3 17 c-2 9 5 25 15 35 l19 19 -6 26 c-4 15 -9 44 -13 65 l-6 38 23 24
23 24 -6 38 -6 37 15 17 16 18 -9 28 c-12 36 -28 28 -29 -15 l0 -33 -22 -15
c-12 -8 -22 -21 -22 -29 0 -7 -11 -27 -25 -43 -14 -17 -25 -35 -25 -41 0 -6
-4 -11 -10 -11 -12 0 -13 34 -1 58 67 137 88 209 69 234 l-13 17 -17 -10z
m-53 -361 c-4 -13 -18 -43 -31 -67 -13 -24 -24 -50 -24 -57 0 -8 -9 -22 -19
-31 -11 -9 -30 -44 -43 -77 l-23 -61 -3 28 -3 29 14 16 c8 10 20 34 26 56 5
21 17 46 26 56 9 10 19 35 22 56 7 41 29 74 51 74 l13 0 -6 -22z m-149 -340
c-3 -17 -13 -39 -21 -48 -8 -9 -15 -30 -15 -47 l0 -30 -22 -20 c-13 -11 -28
-23 -35 -26 l-11 -7 14 47 c8 26 20 54 28 62 8 9 19 35 25 59 l12 42 16 0 16
0 -7 -32z"/>
<path d="M9632 12328 c-7 -7 -12 -17 -12 -24 0 -22 83 -33 96 -12 l7 11 -23
19 c-26 21 -51 23 -68 6z"/>
<path d="M9267 9835 l-36 -35 -25 0 -25 0 -11 -20 -11 -20 11 -19 10 -20 -10
-6 c-6 -3 -19 -3 -30 0 l-20 6 0 24 0 23 -22 6 c-34 9 -71 7 -88 -4 l-15 -10
22 -18 c12 -9 25 -30 29 -47 9 -37 20 -45 61 -45 17 0 35 -4 38 -10 l6 -10
-18 -1 c-10 -1 -43 -3 -75 -4 -31 -2 -71 -8 -90 -13 -18 -6 -67 -14 -108 -17
-41 -3 -91 -8 -110 -11 l-34 -6 15 -8 c8 -5 120 -10 249 -11 238 -2 342 -9
415 -27 32 -9 173 -18 308 -22 10 0 29 -12 42 -26 l24 -26 58 -10 c32 -6 96
-12 143 -13 47 -1 93 -6 103 -10 l18 -8 24 11 c12 6 32 8 44 5 l21 -5 35 21
c20 11 47 21 60 21 13 0 26 4 29 8 15 24 -40 43 -140 47 -28 1 -60 8 -72 14
-12 6 -49 14 -83 16 -33 3 -75 13 -92 22 l-32 16 -250 8 c-337 11 -453 26
-323 43 28 4 68 16 90 27 l39 20 9 25 c5 13 26 34 45 45 44 26 44 33 -4 63
-22 14 -42 30 -46 36 l-6 10 -68 0 -68 0 -36 -35z"/>
<path d="M7675 9490 c-44 -4 -95 -13 -112 -20 l-33 -12 0 -18 c0 -21 10 -25
100 -40 86 -13 157 -13 220 2 l52 12 15 23 16 24 -18 19 -18 20 -71 -2 c-39 0
-107 -4 -151 -8z"/>
<path d="M8115 9100 c-4 -7 198 -20 308 -20 l57 0 0 10 0 10 -82 1 c-46 1
-127 2 -181 3 -54 1 -100 -1 -102 -4z"/>
<path d="M8970 9090 l-15 -10 115 1 115 2 -50 7 c-71 12 -147 11 -165 0z"/>
<path d="M8945 9011 c-27 -9 -69 -29 -93 -44 l-43 -28 7 -12 c4 -7 14 -20 22
-29 l15 -18 -12 0 c-15 0 -71 -60 -71 -76 0 -7 20 -18 45 -25 87 -26 42 -42
-116 -43 l-106 -1 -16 14 -17 13 9 16 9 16 -14 28 -14 28 6 24 6 24 -31 23
-31 23 0 21 c0 31 -19 45 -61 45 l-38 0 -55 -47 -56 -48 -11 -43 -12 -44 -23
-9 c-35 -13 -29 -26 14 -33 20 -3 43 -10 51 -15 l15 -9 -13 -16 c-7 -9 -31
-21 -52 -26 -42 -12 -49 -23 -21 -35 20 -9 911 -8 1024 1 l78 7 13 -12 14 -11
109 -5 c303 -15 644 -7 644 15 0 19 -55 23 -390 25 l-355 3 -82 12 c-45 7 -90
18 -100 25 l-17 13 36 22 37 21 -6 33 -5 32 16 13 c22 18 20 38 -3 46 -25 8
-52 50 -45 69 l6 16 -27 10 c-14 5 -63 10 -108 9 l-82 0 -50 -18z"/>
<path d="M10387 8242 l-17 -19 1 -149 c0 -82 4 -173 8 -203 l8 -54 17 -13 c10
-7 24 -10 32 -7 7 3 28 -4 46 -14 54 -32 86 -12 54 32 l-14 19 24 29 24 28
-10 19 c-6 10 -7 21 -2 23 4 3 6 46 5 96 l-2 91 -27 46 -26 45 -18 -6 -18 -6
-14 28 -13 28 -21 3 -20 3 -17 -19z"/>
<path d="M8846 6643 c-3 -10 -9 -24 -12 -30 -3 -7 0 -13 6 -13 7 0 20 -10 30
-22 l19 -23 18 11 c10 6 19 22 21 36 l3 25 -16 17 c-9 9 -27 16 -40 16 l-23 0
-6 -17z"/>
<path d="M10854 3455 c-4 -9 -4 -38 -1 -65 l6 -49 38 -57 c58 -87 61 -94 68
-147 l7 -49 -12 -8 c-6 -4 -116 -8 -243 -9 -127 -1 -276 -7 -332 -12 -55 -6
-226 -12 -380 -14 -154 -3 -284 -5 -290 -6 -25 -5 143 -17 260 -18 143 -1 328
-12 321 -18 -10 -10 -377 -32 -529 -31 l-168 0 -25 -17 -26 -17 -32 6 c-36 8
-46 8 -108 0 l-46 -6 -7 21 -6 21 -192 -1 c-106 -1 -199 0 -207 1 -8 1 -57 -2
-107 -6 l-93 -7 0 -13 c0 -8 -7 -14 -16 -14 l-16 0 5 15 c8 19 -8 28 -34 20
l-20 -7 10 -12 c13 -15 4 -26 -20 -26 -23 0 -35 20 -19 30 l13 8 -116 7 c-64
4 -123 5 -131 2 l-14 -6 5 -19 c2 -11 0 -23 -6 -26 -17 -11 -13 -22 12 -33
l22 -10 61 5 62 4 38 -12 c22 -7 47 -21 57 -31 l18 -19 35 0 35 0 -6 11 c-4 6
2 19 12 29 l20 18 51 7 51 7 5 14 c6 17 28 18 43 3 l11 -11 83 1 c46 0 141 3
210 7 l126 7 14 -32 14 -31 31 6 32 6 6 -11 c9 -14 63 -14 72 0 l6 11 28 -6
28 -5 15 22 14 22 26 -14 26 -14 28 8 c15 4 51 9 79 12 l50 5 13 -16 c8 -9 26
-16 42 -16 16 0 29 -4 29 -10 0 -14 -57 -13 -62 2 l-4 11 -33 -11 c-18 -7 -44
-9 -57 -6 l-24 6 0 -11 0 -11 -55 0 -55 0 0 -10 0 -10 63 0 c34 1 82 5 107 10
l45 8 15 -13 15 -13 190 2 c221 3 392 -8 454 -29 l44 -15 17 15 17 15 112 0
113 0 -6 -16 c-3 -9 -6 -18 -6 -20 0 -2 -20 -4 -44 -4 -25 0 -47 -4 -51 -9 -5
-10 6 -15 62 -26 l31 -6 4 16 3 17 241 2 c132 1 245 6 252 10 7 4 17 4 22 1
l11 -7 -12 -14 c-6 -8 -29 -17 -50 -20 -62 -10 -34 -24 47 -24 78 0 92 9 48
29 l-27 12 28 29 c15 16 32 27 37 24 13 -8 38 -62 36 -76 l-3 -13 28 -3 27 -3
0 10 c0 5 -5 13 -11 16 -6 4 -8 13 -5 21 3 8 -3 36 -14 63 -10 27 -22 73 -26
103 -4 29 -17 73 -29 98 -12 25 -25 60 -28 78 -4 18 -17 46 -29 62 l-22 30
-36 -2 -35 -3 -3 27 c-4 31 -37 59 -59 51 l-15 -6 4 -34 4 -34 -15 3 -16 3 -3
33 -3 32 15 0 c9 0 16 3 16 8 0 16 -32 52 -45 52 -8 0 -25 12 -39 26 l-24 27
-16 -6 -16 -6 2 -33 3 -33 -22 -3 -21 -3 -7 22 -8 23 22 14 21 14 0 23 c0 12
-7 28 -15 35 l-14 12 -9 -34 -8 -33 -20 -3 -20 -3 -23 56 c-25 61 -38 74 -47
50z"/>
<path d="M9070 2854 c-8 -3 -22 -8 -30 -10 l-15 -5 18 -11 18 -10 50 7 c46 6
70 24 32 24 -10 -1 -27 2 -38 5 -11 3 -27 3 -35 0z"/>
<path d="M9810 2740 l-15 -10 185 2 185 1 -85 8 c-124 10 -253 10 -270 -1z"/>
<path d="M10225 2739 l-40 -6 98 -2 98 -1 -6 10 -6 10 -52 -3 c-29 -1 -70 -5
-92 -8z"/>
</g>
</svg>
